<mxfile host="app.diagrams.net" agent="Mozilla/5.0 (Macintosh; Intel Mac OS X 10_15_7) AppleWebKit/537.36 (KHTML, like Gecko) Chrome/132.0.0.0 Safari/537.36" version="26.2.14">
  <diagram name="Page-1" id="AVNgcjcgZHWc-DgP9k2f">
    <mxGraphModel dx="1804" dy="968" grid="1" gridSize="10" guides="1" tooltips="1" connect="1" arrows="1" fold="1" page="1" pageScale="1" pageWidth="3300" pageHeight="4681" math="0" shadow="0">
      <root>
        <mxCell id="0" />
        <mxCell id="1" parent="0" />
        <mxCell id="lqXOrUP9vOLOigYQvVyq-1" value="AUTH" style="shape=umlFrame;whiteSpace=wrap;html=1;pointerEvents=0;" vertex="1" parent="1">
          <mxGeometry x="1130" y="1380" width="300" height="310" as="geometry" />
        </mxCell>
        <mxCell id="lqXOrUP9vOLOigYQvVyq-4" value="" style="edgeStyle=orthogonalEdgeStyle;rounded=0;orthogonalLoop=1;jettySize=auto;html=1;" edge="1" parent="1" source="lqXOrUP9vOLOigYQvVyq-2" target="lqXOrUP9vOLOigYQvVyq-3">
          <mxGeometry relative="1" as="geometry" />
        </mxCell>
        <mxCell id="lqXOrUP9vOLOigYQvVyq-2" value="CLIENT" style="shape=umlActor;verticalLabelPosition=bottom;verticalAlign=top;html=1;" vertex="1" parent="1">
          <mxGeometry x="1030" y="1440" width="30" height="60" as="geometry" />
        </mxCell>
        <mxCell id="lqXOrUP9vOLOigYQvVyq-3" value="Admin&lt;div&gt;&lt;br&gt;&lt;/div&gt;" style="shape=umlActor;verticalLabelPosition=bottom;verticalAlign=top;html=1;" vertex="1" parent="1">
          <mxGeometry x="1030" y="1580" width="30" height="60" as="geometry" />
        </mxCell>
        <mxCell id="lqXOrUP9vOLOigYQvVyq-5" value="LOG IN ACCONT" style="ellipse;whiteSpace=wrap;html=1;" vertex="1" parent="1">
          <mxGeometry x="1220" y="1435" width="140" height="70" as="geometry" />
        </mxCell>
        <mxCell id="lqXOrUP9vOLOigYQvVyq-6" value="" style="line;strokeWidth=1;fillColor=none;align=left;verticalAlign=middle;spacingTop=-1;spacingLeft=3;spacingRight=3;rotatable=0;labelPosition=right;points=[];portConstraint=eastwest;strokeColor=inherit;" vertex="1" parent="1">
          <mxGeometry x="1040" y="1466" width="220" height="8" as="geometry" />
        </mxCell>
        <mxCell id="lqXOrUP9vOLOigYQvVyq-8" value="" style="endArrow=none;html=1;rounded=0;" edge="1" parent="1" target="lqXOrUP9vOLOigYQvVyq-5">
          <mxGeometry width="50" height="50" relative="1" as="geometry">
            <mxPoint x="1060" y="1600" as="sourcePoint" />
            <mxPoint x="1110" y="1550" as="targetPoint" />
          </mxGeometry>
        </mxCell>
        <mxCell id="lqXOrUP9vOLOigYQvVyq-9" value="SIGNUP" style="shape=umlFrame;whiteSpace=wrap;html=1;pointerEvents=0;" vertex="1" parent="1">
          <mxGeometry x="1130" y="1850" width="300" height="300" as="geometry" />
        </mxCell>
        <mxCell id="lqXOrUP9vOLOigYQvVyq-10" value="CLIENT" style="shape=umlActor;verticalLabelPosition=bottom;verticalAlign=top;html=1;" vertex="1" parent="1">
          <mxGeometry x="1010" y="1880" width="30" height="60" as="geometry" />
        </mxCell>
        <mxCell id="lqXOrUP9vOLOigYQvVyq-11" value="ADMIN&lt;div&gt;&lt;br&gt;&lt;/div&gt;" style="shape=umlActor;verticalLabelPosition=bottom;verticalAlign=top;html=1;" vertex="1" parent="1">
          <mxGeometry x="1010" y="2030" width="30" height="60" as="geometry" />
        </mxCell>
        <mxCell id="lqXOrUP9vOLOigYQvVyq-12" value="CREATE ACCOUNT" style="ellipse;whiteSpace=wrap;html=1;" vertex="1" parent="1">
          <mxGeometry x="1240" y="1910" width="140" height="70" as="geometry" />
        </mxCell>
        <mxCell id="lqXOrUP9vOLOigYQvVyq-13" value="" style="endArrow=none;html=1;rounded=0;" edge="1" parent="1" target="lqXOrUP9vOLOigYQvVyq-12">
          <mxGeometry width="50" height="50" relative="1" as="geometry">
            <mxPoint x="1050" y="1940" as="sourcePoint" />
            <mxPoint x="1100" y="1890" as="targetPoint" />
          </mxGeometry>
        </mxCell>
        <mxCell id="lqXOrUP9vOLOigYQvVyq-14" value="" style="endArrow=none;html=1;rounded=0;" edge="1" parent="1" target="lqXOrUP9vOLOigYQvVyq-12">
          <mxGeometry width="50" height="50" relative="1" as="geometry">
            <mxPoint x="1040" y="2090" as="sourcePoint" />
            <mxPoint x="1090" y="2040" as="targetPoint" />
          </mxGeometry>
        </mxCell>
        <mxCell id="lqXOrUP9vOLOigYQvVyq-15" value="RESERVATION" style="shape=umlFrame;whiteSpace=wrap;html=1;pointerEvents=0;" vertex="1" parent="1">
          <mxGeometry x="1740" y="1380" width="420" height="360" as="geometry" />
        </mxCell>
        <mxCell id="lqXOrUP9vOLOigYQvVyq-16" value="CLIENT&lt;div&gt;&lt;br&gt;&lt;/div&gt;" style="shape=umlActor;verticalLabelPosition=bottom;verticalAlign=top;html=1;" vertex="1" parent="1">
          <mxGeometry x="1660" y="1510" width="30" height="60" as="geometry" />
        </mxCell>
        <mxCell id="lqXOrUP9vOLOigYQvVyq-17" value="MAKE RESERVATION&lt;span style=&quot;color: rgba(0, 0, 0, 0); font-family: monospace; font-size: 0px; text-align: start; text-wrap-mode: nowrap;&quot;&gt;%3CmxGraphModel%3E%3Croot%3E%3CmxCell%20id%3D%220%22%2F%3E%3CmxCell%20id%3D%221%22%20parent%3D%220%22%2F%3E%3CmxCell%20id%3D%222%22%20value%3D%22CLIENT%22%20style%3D%22shape%3DumlActor%3BverticalLabelPosition%3Dbottom%3BverticalAlign%3Dtop%3Bhtml%3D1%3B%22%20vertex%3D%221%22%20parent%3D%221%22%3E%3CmxGeometry%20x%3D%221010%22%20y%3D%221880%22%20width%3D%2230%22%20height%3D%2260%22%20as%3D%22geometry%22%2F%3E%3C%2FmxCell%3E%3C%2Froot%3E%3C%2FmxGraphModel%3E&lt;/span&gt;" style="ellipse;whiteSpace=wrap;html=1;" vertex="1" parent="1">
          <mxGeometry x="1900" y="1409" width="140" height="70" as="geometry" />
        </mxCell>
        <mxCell id="lqXOrUP9vOLOigYQvVyq-18" value="CANCEL RESERVATION&lt;span style=&quot;color: rgba(0, 0, 0, 0); font-family: monospace; font-size: 0px; text-align: start; text-wrap-mode: nowrap;&quot;&gt;%3CmxGraphModel%3E%3Croot%3E%3CmxCell%20id%3D%220%22%2F%3E%3CmxCell%20id%3D%221%22%20parent%3D%220%22%2F%3E%3CmxCell%20id%3D%222%22%20value%3D%22CLIENT%22%20style%3D%22shape%3DumlActor%3BverticalLabelPosition%3Dbottom%3BverticalAlign%3Dtop%3Bhtml%3D1%3B%22%20vertex%3D%221%22%20parent%3D%221%22%3E%3CmxGeometry%20x%3D%221010%22%20y%3D%221880%22%20width%3D%2230%22%20height%3D%2260%22%20as%3D%22geometry%22%2F%3E%3C%2FmxCell%3E%3C%2Froot%3E%3C%2FmxGraphModel%3E&lt;/span&gt;" style="ellipse;whiteSpace=wrap;html=1;" vertex="1" parent="1">
          <mxGeometry x="1900" y="1505" width="140" height="70" as="geometry" />
        </mxCell>
        <mxCell id="lqXOrUP9vOLOigYQvVyq-19" value="CHECK RESERVATION" style="ellipse;whiteSpace=wrap;html=1;" vertex="1" parent="1">
          <mxGeometry x="1900" y="1620" width="140" height="70" as="geometry" />
        </mxCell>
        <mxCell id="lqXOrUP9vOLOigYQvVyq-21" value="" style="endArrow=none;html=1;rounded=0;" edge="1" parent="1" target="lqXOrUP9vOLOigYQvVyq-17">
          <mxGeometry width="50" height="50" relative="1" as="geometry">
            <mxPoint x="1690" y="1529" as="sourcePoint" />
            <mxPoint x="1740" y="1479" as="targetPoint" />
          </mxGeometry>
        </mxCell>
        <mxCell id="lqXOrUP9vOLOigYQvVyq-22" value="" style="endArrow=none;html=1;rounded=0;" edge="1" parent="1" target="lqXOrUP9vOLOigYQvVyq-18">
          <mxGeometry width="50" height="50" relative="1" as="geometry">
            <mxPoint x="1690" y="1529" as="sourcePoint" />
            <mxPoint x="1740" y="1479" as="targetPoint" />
          </mxGeometry>
        </mxCell>
        <mxCell id="lqXOrUP9vOLOigYQvVyq-23" value="" style="endArrow=none;html=1;rounded=0;entryX=0.305;entryY=0.06;entryDx=0;entryDy=0;entryPerimeter=0;" edge="1" parent="1" target="lqXOrUP9vOLOigYQvVyq-19">
          <mxGeometry width="50" height="50" relative="1" as="geometry">
            <mxPoint x="1670" y="1550" as="sourcePoint" />
            <mxPoint x="1880" y="1559" as="targetPoint" />
          </mxGeometry>
        </mxCell>
        <mxCell id="lqXOrUP9vOLOigYQvVyq-32" value="ACCESS" style="shape=umlFrame;whiteSpace=wrap;html=1;pointerEvents=0;" vertex="1" parent="1">
          <mxGeometry x="1730" y="1850" width="430" height="300" as="geometry" />
        </mxCell>
        <mxCell id="lqXOrUP9vOLOigYQvVyq-34" value="" style="image;sketch=0;aspect=fixed;html=1;points=[];align=center;fontSize=12;image=img/lib/mscae/VM_Images.svg;" vertex="1" parent="1">
          <mxGeometry x="1625" y="1950" width="50" height="46" as="geometry" />
        </mxCell>
        <mxCell id="lqXOrUP9vOLOigYQvVyq-35" value="SYSTEM" style="text;html=1;align=center;verticalAlign=middle;resizable=0;points=[];autosize=1;strokeColor=none;fillColor=none;" vertex="1" parent="1">
          <mxGeometry x="1605" y="2008" width="70" height="30" as="geometry" />
        </mxCell>
        <mxCell id="lqXOrUP9vOLOigYQvVyq-36" value="GIVE ACCESS TO DASHBOARD" style="ellipse;whiteSpace=wrap;html=1;" vertex="1" parent="1">
          <mxGeometry x="1880" y="1890" width="140" height="70" as="geometry" />
        </mxCell>
        <mxCell id="lqXOrUP9vOLOigYQvVyq-38" value="INCLUDE" style="endArrow=open;endSize=12;dashed=1;html=1;rounded=0;entryX=0.59;entryY=0.057;entryDx=0;entryDy=0;entryPerimeter=0;" edge="1" parent="1" source="lqXOrUP9vOLOigYQvVyq-36" target="lqXOrUP9vOLOigYQvVyq-39">
          <mxGeometry width="160" relative="1" as="geometry">
            <mxPoint x="1865" y="2008" as="sourcePoint" />
            <mxPoint x="2025" y="2008" as="targetPoint" />
          </mxGeometry>
        </mxCell>
        <mxCell id="lqXOrUP9vOLOigYQvVyq-39" value="CHECK EMAIL DOMAIN" style="ellipse;whiteSpace=wrap;html=1;" vertex="1" parent="1">
          <mxGeometry x="1930" y="2038" width="140" height="70" as="geometry" />
        </mxCell>
        <mxCell id="lqXOrUP9vOLOigYQvVyq-42" value="DOMAIN HAS TO END WITH e-polytechnique.ma" style="shape=note2;boundedLbl=1;whiteSpace=wrap;html=1;size=25;verticalAlign=top;align=center;" vertex="1" parent="1">
          <mxGeometry x="2110" y="1870" width="160" height="60" as="geometry" />
        </mxCell>
        <mxCell id="lqXOrUP9vOLOigYQvVyq-43" value="mail&#xa;" style="resizeWidth=1;part=1;strokeColor=none;fillColor=none;align=left;spacingLeft=5;" vertex="1" parent="lqXOrUP9vOLOigYQvVyq-42">
          <mxGeometry width="160" height="25" relative="1" as="geometry" />
        </mxCell>
        <mxCell id="lqXOrUP9vOLOigYQvVyq-44" value="" style="endArrow=none;html=1;rounded=0;" edge="1" parent="1" target="lqXOrUP9vOLOigYQvVyq-36">
          <mxGeometry width="50" height="50" relative="1" as="geometry">
            <mxPoint x="1680" y="1980" as="sourcePoint" />
            <mxPoint x="1730" y="1930" as="targetPoint" />
          </mxGeometry>
        </mxCell>
        <mxCell id="lqXOrUP9vOLOigYQvVyq-45" value="" style="endArrow=none;html=1;rounded=0;entryX=0.5;entryY=0.5;entryDx=0;entryDy=0;entryPerimeter=0;" edge="1" parent="1" target="lqXOrUP9vOLOigYQvVyq-46">
          <mxGeometry width="50" height="50" relative="1" as="geometry">
            <mxPoint x="2020" y="1930" as="sourcePoint" />
            <mxPoint x="2070" y="1880" as="targetPoint" />
          </mxGeometry>
        </mxCell>
        <mxCell id="lqXOrUP9vOLOigYQvVyq-46" value="ADMIN&lt;div&gt;&lt;br&gt;&lt;/div&gt;" style="shape=umlActor;verticalLabelPosition=bottom;verticalAlign=top;html=1;" vertex="1" parent="1">
          <mxGeometry x="2220" y="1970" width="30" height="60" as="geometry" />
        </mxCell>
      </root>
    </mxGraphModel>
  </diagram>
</mxfile>
